<svg width="111" height="22" viewBox="0 0 111 22" fill="none" xmlns="http://www.w3.org/2000/svg">
<g clip-path="url(#clip0_526_2691)">
<mask id="mask0_526_2691" style="mask-type:luminance" maskUnits="userSpaceOnUse" x="0" y="0" width="111" height="22">
<path d="M110.753 0H0V21.7347H110.753V0Z" fill="white"/>
</mask>
<g mask="url(#mask0_526_2691)">
<path fill-rule="evenodd" clip-rule="evenodd" d="M0.552516 14.4276L19.5113 15.7409C19.6344 15.7784 19.7465 15.8466 19.8373 15.9395C19.9282 16.0323 19.995 16.1469 20.0316 16.2728L21.3165 20.6827C21.3641 20.8459 21.4619 20.989 21.5954 21.0907C21.7289 21.1925 21.891 21.2475 22.0576 21.2475C22.2241 21.2475 22.3862 21.1925 22.5197 21.0907C22.6533 20.989 22.7511 20.8459 22.7986 20.6827L24.0835 16.2728C24.1202 16.1469 24.1869 16.0323 24.2778 15.9395C24.3686 15.8466 24.4807 15.7784 24.6038 15.7409L28.9183 14.4276C29.0779 14.379 29.2179 14.279 29.3175 14.1425C29.4171 14.006 29.4708 13.8404 29.4708 13.6701C29.4708 13.4999 29.4171 13.3342 29.3175 13.1977C29.2179 13.0612 29.0779 12.9613 28.9183 12.9127L24.6038 11.5993C24.4807 11.5618 24.3686 11.4936 24.2778 11.4007C24.1869 11.3079 24.1202 11.1933 24.0835 11.0675L22.7986 6.65748C22.7511 6.49434 22.6533 6.35124 22.5197 6.24948C22.3862 6.14771 22.2241 6.09277 22.0576 6.09277C21.891 6.09277 21.7289 6.14771 21.5954 6.24948C21.4619 6.35124 21.3641 6.49434 21.3165 6.65748L20.0316 11.0675C19.995 11.1933 19.9282 11.3079 19.8373 11.4007C19.7465 11.4936 19.6344 11.5618 19.5113 11.5993L0.552512 12.9127C0.392888 12.9613 0.252884 13.0612 0.153331 13.1977C0.0537784 13.3342 -6.91056e-07 13.4999 0 13.6701C6.91082e-07 13.8404 0.0537772 14.006 0.153331 14.1425C0.252886 14.279 0.392894 14.379 0.552516 14.4276Z" fill="white"/>
<path fill-rule="evenodd" clip-rule="evenodd" d="M10.0061 4.98569L12.5551 5.76157C12.6278 5.78373 12.694 5.82405 12.7477 5.87892C12.8014 5.93377 12.8408 6.00143 12.8625 6.07579L13.6216 8.68119C13.6497 8.77758 13.7075 8.86212 13.7863 8.92225C13.8652 8.98237 13.961 9.01483 14.0594 9.01483C14.1578 9.01483 14.2536 8.98237 14.3324 8.92225C14.4113 8.86212 14.4691 8.77758 14.4972 8.68119L15.2563 6.07579C15.278 6.00143 15.3174 5.93377 15.3711 5.87892C15.4248 5.82405 15.491 5.78373 15.5637 5.76157L18.1127 4.98569C18.207 4.95697 18.2897 4.89791 18.3485 4.81727C18.4073 4.73665 18.4391 4.63875 18.4391 4.53818C18.4391 4.43761 18.4073 4.33971 18.3485 4.2591C18.2897 4.17845 18.207 4.1194 18.1127 4.0907L15.5637 3.31476C15.491 3.29264 15.4248 3.25231 15.3711 3.19747C15.3174 3.14259 15.278 3.07491 15.2563 3.00055L14.4972 0.395173C14.4691 0.298781 14.4113 0.214236 14.3324 0.154117C14.2536 0.0939989 14.1578 0.0615234 14.0594 0.0615234C13.961 0.0615234 13.8652 0.0939989 13.7863 0.154117C13.7075 0.214236 13.6497 0.298781 13.6216 0.395173L12.8625 3.00055C12.8408 3.07491 12.8014 3.14259 12.7477 3.19747C12.694 3.25231 12.6278 3.29264 12.5551 3.31476L10.0061 4.0907C9.9118 4.1194 9.82909 4.17845 9.77027 4.2591C9.71145 4.33971 9.67969 4.43761 9.67969 4.53818C9.67969 4.63875 9.71145 4.73665 9.77027 4.81727C9.82909 4.89791 9.9118 4.95697 10.0061 4.98569Z" fill="white"/>
<path d="M51.4593 10.5566C52.0878 11.084 52.5936 11.7476 52.9404 12.4994C53.2872 13.2511 53.4662 14.0723 53.4643 14.9035V16.1452C53.4674 16.88 53.3281 17.6082 53.0542 18.2877C52.7805 18.9671 52.378 19.5845 51.8694 20.1041C51.3612 20.6237 50.7573 21.0353 50.0925 21.315C49.4278 21.5949 48.7153 21.7373 47.9964 21.7343H39.1758V-0.00043931H47.3889C48.1077 -0.00352176 48.8202 0.138941 49.4849 0.418726C50.1497 0.698513 50.7536 1.11008 51.2619 1.62969C51.7704 2.1493 52.1729 2.76664 52.4466 3.44614C52.7205 4.12563 52.8598 4.85379 52.8568 5.58863V6.8304C52.8681 8.20829 52.3688 9.53948 51.4593 10.5566ZM47.3889 9.31439C47.7089 9.31866 48.0269 9.25731 48.3236 9.13402C48.6203 9.01069 48.89 8.82787 49.1166 8.59637C49.3429 8.36484 49.5218 8.0893 49.6424 7.78602C49.7632 7.4827 49.8232 7.15779 49.8189 6.8304V5.58863C49.8232 5.2612 49.7632 4.93626 49.6424 4.63295C49.5218 4.3296 49.3429 4.05403 49.1166 3.8225C48.89 3.59093 48.6203 3.40808 48.3236 3.28472C48.0269 3.16137 47.7089 3.09998 47.3889 3.10421H42.2137V9.31439H47.3889ZM47.9964 18.6292C48.3168 18.6335 48.6345 18.5721 48.9315 18.4488C49.2282 18.3255 49.4976 18.1427 49.7242 17.9112C49.9508 17.6797 50.1294 17.4041 50.2503 17.1008C50.3708 16.7975 50.4307 16.4726 50.4268 16.1452V14.9035C50.4307 14.5761 50.3708 14.2511 50.2503 13.9478C50.1294 13.6445 49.9508 13.369 49.7242 13.1375C49.4976 12.906 49.2282 12.7232 48.9315 12.5998C48.6345 12.4765 48.3168 12.4152 47.9964 12.4195H42.2137V18.6292H47.9964Z" fill="white"/>
<path d="M69.4832 18.6292V21.7343H56.1174V18.6292H61.1297V10.5753H56.1174V7.47021H64.1672V18.6292H69.4832Z" fill="white"/>
<path d="M94.7319 10.5756V7.47053H89.1118V1.86279H86.0745V7.47053H75.746V1.86279H72.7084V7.47053H68V10.5756H72.7084V16.1454C72.7054 16.8802 72.845 17.6084 73.1186 18.2879C73.3923 18.9674 73.7948 19.5847 74.3033 20.1043C74.8116 20.6239 75.4155 21.0355 76.0802 21.3153C76.745 21.5951 77.4574 21.7376 78.1763 21.7346H81.3658V18.6295H78.1763C77.8559 18.6338 77.538 18.5724 77.2413 18.4491C76.9446 18.3258 76.6749 18.143 76.4486 17.9114C76.222 17.6799 76.043 17.4044 75.9225 17.1011C75.802 16.7977 75.742 16.4728 75.746 16.1454V10.5756H86.0745V16.1454C86.0715 16.8802 86.2108 17.6084 86.4844 18.2879C86.7581 18.9673 87.1606 19.5847 87.6691 20.1043C88.1774 20.6239 88.7813 21.0355 89.4461 21.3153C90.1108 21.5951 90.823 21.7376 91.5418 21.7346H94.7319V18.6295H91.5418C91.2218 18.6338 90.9038 18.5724 90.6071 18.4491C90.3104 18.3258 90.0407 18.143 89.8141 17.9114C89.5878 17.6799 89.4089 17.4044 89.2883 17.1011C89.1675 16.7977 89.1075 16.4728 89.1118 16.1454V10.5756H94.7319Z" fill="white"/>
<path d="M106.822 21.7344H102.855C101.403 21.7231 100.014 21.1264 98.9899 20.074C97.966 19.0217 97.3898 17.5988 97.3867 16.1146V13.0594C97.3864 12.3253 97.5275 11.5983 97.8021 10.9199C98.0767 10.2417 98.4795 9.62534 98.9875 9.10627C99.4951 8.58716 100.098 8.17551 100.762 7.89479C101.425 7.61407 102.137 7.46985 102.855 7.47029H105.285C106.686 7.46303 108.035 8.00734 109.053 8.99027C110.071 9.9732 110.68 11.3192 110.753 12.7488V16.1025H100.425V16.1146C100.426 16.7728 100.683 17.4035 101.139 17.869C101.594 18.3344 102.211 18.5967 102.855 18.5986H106.822V21.7344ZM107.715 13.6181V13.0594C107.719 12.732 107.659 12.4071 107.539 12.1037C107.418 11.8005 107.239 11.5249 107.013 11.2934C106.786 11.0619 106.517 10.8791 106.22 10.7558C105.923 10.6324 105.605 10.5711 105.285 10.5754H102.855C102.535 10.5737 102.218 10.6368 101.923 10.7611C101.627 10.8853 101.359 11.0683 101.133 11.2992C100.907 11.5302 100.728 11.8047 100.606 12.1068C100.485 12.4089 100.423 12.7327 100.425 13.0594V13.6181H107.715Z" fill="white"/>
<path d="M62.4967 3.86603C63.5412 3.86603 64.388 3.00059 64.388 1.93302C64.388 0.865442 63.5412 0 62.4967 0C61.4522 0 60.6057 0.865442 60.6057 1.93302C60.6057 3.00059 61.4522 3.86603 62.4967 3.86603Z" fill="white"/>
</g>
</g>
<defs>
<clipPath id="clip0_526_2691">
<rect width="111" height="22" fill="white"/>
</clipPath>
</defs>
</svg>
