<svg width="40" height="28" viewBox="0 0 40 28" fill="none" xmlns="http://www.w3.org/2000/svg">
<g clip-path="url(#clip0_526_2922)">
<path fill-rule="evenodd" clip-rule="evenodd" d="M0.749909 18.9867L26.4822 20.7224C26.6493 20.772 26.8014 20.8622 26.9247 20.9849C27.048 21.1076 27.1386 21.259 27.1884 21.4254L28.9323 27.2537C28.9969 27.4693 29.1296 27.6584 29.3109 27.7929C29.4921 27.9274 29.7121 28 29.9381 28C30.1642 28 30.3842 27.9274 30.5654 27.7929C30.7467 27.6584 30.8794 27.4693 30.944 27.2537L32.6879 21.4254C32.7377 21.259 32.8283 21.1076 32.9516 20.9849C33.0749 20.8622 33.227 20.772 33.3941 20.7224L39.2501 18.9867C39.4667 18.9225 39.6567 18.7904 39.7919 18.61C39.927 18.4296 40 18.2106 40 17.9857C40 17.7607 39.927 17.5417 39.7919 17.3613C39.6567 17.1809 39.4667 17.0488 39.2501 16.9846L33.3942 15.2489C33.227 15.1993 33.0749 15.1091 32.9516 14.9864C32.8283 14.8637 32.7377 14.7123 32.6879 14.5459L30.944 8.71762C30.8794 8.50198 30.7467 8.31283 30.5655 8.17834C30.3842 8.04385 30.1642 7.97119 29.9382 7.97119C29.7121 7.97119 29.4921 8.04385 29.3109 8.17834C29.1296 8.31283 28.9969 8.50198 28.9324 8.71762L27.1884 14.5459C27.1386 14.7123 27.048 14.8636 26.9247 14.9864C26.8014 15.1091 26.6493 15.1993 26.4822 15.2489L0.749913 16.9846C0.533261 17.0488 0.343234 17.1809 0.208113 17.3613C0.0729919 17.5417 0 17.7607 0 17.9857C0 18.2106 0.0729919 18.4296 0.208113 18.61C0.343234 18.7904 0.533257 18.9225 0.749909 18.9867Z" fill="#A6AAB0"/>
<path fill-rule="evenodd" clip-rule="evenodd" d="M13.5798 6.50789L17.0395 7.53336C17.1382 7.56263 17.2281 7.61593 17.3009 7.68844C17.3738 7.76095 17.4273 7.85039 17.4567 7.94867L18.487 11.392C18.5251 11.5194 18.6036 11.6311 18.7106 11.7106C18.8177 11.79 18.9477 11.833 19.0812 11.833C19.2148 11.833 19.3448 11.79 19.4518 11.7106C19.5589 11.6311 19.6373 11.5194 19.6755 11.392L20.7058 7.94867C20.7352 7.85038 20.7887 7.76093 20.8616 7.68842C20.9344 7.61591 21.0243 7.56262 21.123 7.53336L24.5827 6.50789C24.7107 6.46995 24.8229 6.39188 24.9027 6.28532C24.9826 6.17876 25.0257 6.04939 25.0257 5.91648C25.0257 5.78356 24.9826 5.65419 24.9027 5.54763C24.8229 5.44107 24.7107 5.363 24.5827 5.32506L21.123 4.29959C21.0243 4.27033 20.9344 4.21703 20.8616 4.14452C20.7887 4.07201 20.7352 3.98257 20.7058 3.88429L19.6755 0.440954C19.6373 0.313561 19.5589 0.201824 19.4518 0.122372C19.3448 0.0429197 19.2148 0 19.0812 0C18.9477 0 18.8177 0.0429197 18.7106 0.122372C18.6036 0.201824 18.5251 0.313561 18.487 0.440954L17.4567 3.88429C17.4273 3.98257 17.3738 4.07201 17.3009 4.14452C17.2281 4.21703 17.1382 4.27033 17.0395 4.29959L13.5798 5.32506C13.4518 5.36299 13.3396 5.44104 13.2597 5.54761C13.1799 5.65417 13.1367 5.78355 13.1367 5.91648C13.1367 6.0494 13.1799 6.17878 13.2597 6.28534C13.3396 6.39191 13.4518 6.46996 13.5798 6.50789Z" fill="#A6AAB0"/>
</g>
<defs>
<clipPath id="clip0_526_2922">
<rect width="40" height="28" fill="white"/>
</clipPath>
</defs>
</svg>
